<?xml version="1.0" encoding="UTF-8" standalone="no"?><!-- Generator: Gravit.io --><svg xmlns="http://www.w3.org/2000/svg" xmlns:xlink="http://www.w3.org/1999/xlink" style="isolation:isolate" viewBox="0 0 24 24" width="24pt" height="24pt"><defs><clipPath id="_clipPath_WtJwvQsAtYjD4pmSfC83YKa50G3486rb"><rect width="24" height="24"/></clipPath></defs><g clip-path="url(#_clipPath_WtJwvQsAtYjD4pmSfC83YKa50G3486rb)"><clipPath id="_clipPath_E1M7SNDgIAGWS4VoSkAVQ1mQsrLQCvn7"><rect x="0" y="0" width="24" height="24" transform="matrix(1,0,0,1,0,0)" fill="rgb(255,255,255)"/></clipPath><g clip-path="url(#_clipPath_E1M7SNDgIAGWS4VoSkAVQ1mQsrLQCvn7)"><g><path d=" M 12 15 C 13.66 15 14.99 13.66 14.99 12 L 15 6 C 15 4.34 13.66 3 12 3 C 10.34 3 9 4.34 9 6 L 9 12 C 9 13.66 10.34 15 12 15 Z  M 17.3 12 C 17.3 15 14.76 17.1 12 17.1 C 9.24 17.1 6.7 15 6.7 12 L 5 12 C 5 15.42 7.72 18.23 11 18.72 L 11 22 L 13 22 L 13 18.72 C 16.28 18.24 19 15.42 19 12 L 17.3 12 L 17.3 12 L 17.3 12 Z " fill="rgb(34,34,34)"/><path d=" M 0 0 L 24 0 L 24 24 L 0 24 L 0 0 L 0 0 Z " fill="none"/></g></g></g></svg>