<?xml version="1.0" encoding="UTF-8" standalone="no"?><!-- Generator: Gravit.io --><svg xmlns="http://www.w3.org/2000/svg" xmlns:xlink="http://www.w3.org/1999/xlink" style="isolation:isolate" viewBox="0 0 24 24" width="24pt" height="24pt"><defs><clipPath id="_clipPath_uTVSKYNbxMwxrSCF8I2S3tvM7ozxFrt5"><rect width="24" height="24"/></clipPath></defs><g clip-path="url(#_clipPath_uTVSKYNbxMwxrSCF8I2S3tvM7ozxFrt5)"><path d=" M 17 20 C 16.71 20 16.44 19.94 16.24 19.85 C 15.53 19.48 15.03 18.97 14.53 17.47 C 14.02 15.91 13.06 15.18 12.14 14.47 C 11.35 13.86 10.53 13.23 9.82 11.94 C 9.29 10.98 9 9.93 9 9 C 9 6.2 11.2 4 14 4 C 16.8 4 19 6.2 19 9 L 21 9 C 21 5.07 17.93 2 14 2 C 10.07 2 7 5.07 7 9 C 7 10.26 7.38 11.65 8.07 12.9 C 8.98 14.55 10.05 15.38 10.92 16.05 C 11.73 16.67 12.31 17.12 12.63 18.1 C 13.23 19.92 14 20.94 15.36 21.65 C 15.87 21.88 16.43 22 17 22 C 19.21 22 21 20.21 21 18 L 19 18 C 19 19.1 18.1 20 17 20 Z  M 7.64 2.64 L 6.22 1.22 C 4.23 3.21 3 5.96 3 9 C 3 12.04 4.23 14.79 6.22 16.78 L 7.63 15.37 C 6.01 13.74 5 11.49 5 9 C 5 6.51 6.01 4.26 7.64 2.64 Z  M 11.5 9 C 11.5 10.38 12.62 11.5 14 11.5 C 15.38 11.5 16.5 10.38 16.5 9 C 16.5 7.62 15.38 6.5 14 6.5 C 12.62 6.5 11.5 7.62 11.5 9 Z " fill="rgb(34,34,34)"/><path d=" M 0 0 L 24 0 L 24 24 L 0 24 L 0 0 Z " fill="none"/></g></svg>