<?xml version="1.0" encoding="UTF-8" standalone="no"?><!-- Generator: Gravit.io --><svg xmlns="http://www.w3.org/2000/svg" xmlns:xlink="http://www.w3.org/1999/xlink" style="isolation:isolate" viewBox="0 0 303.667 343" width="303.667pt" height="343pt"><defs><clipPath id="_clipPath_CWAs4GsRoMhdMGHtfN3kvXjvSjIhPm6n"><rect width="303.667" height="343"/></clipPath></defs><g clip-path="url(#_clipPath_CWAs4GsRoMhdMGHtfN3kvXjvSjIhPm6n)"><rect x="132.333" y="256.667" width="39.333" height="14" transform="matrix(1,0,0,1,0,0)" fill="rgb(168,73,168)"/><ellipse vector-effect="non-scaling-stroke" cx="152.89192708333343" cy="136.08463541666634" rx="91.62500000000006" ry="124.5" fill="rgb(168,73,168)"/><path d=" M 238.312 173.354 C 239.505 169.776 241.677 167.273 243.161 167.767 C 244.644 168.262 244.881 171.568 243.688 175.146 C 242.495 178.724 240.323 181.227 238.839 180.733 C 237.356 180.238 237.119 176.932 238.312 173.354 Z " fill="rgb(168,73,168)"/><path d=" M 63.52 179.688 C 64.713 183.266 66.886 185.769 68.369 185.274 C 69.853 184.78 70.089 181.474 68.896 177.896 C 67.704 174.318 65.531 171.814 64.047 172.309 C 62.564 172.804 62.328 176.11 63.52 179.688 Z " fill="rgb(168,73,168)"/><circle vector-effect="non-scaling-stroke" cx="109.16666666666669" cy="175.16666666666652" r="12.5" fill="rgb(23,23,23)"/><circle vector-effect="non-scaling-stroke" cx="194.16666666666652" cy="175.16666666666652" r="12.5" fill="rgb(23,23,23)"/><path d=" M 300.692 133.026 C 302.612 128.397 303.667 123.32 303.667 118 C 303.667 102.633 294.873 89.304 282.038 82.789 L 282.038 82.789 L 282.038 82.789 C 280.401 62.488 263.386 46.5 242.667 46.5 C 239.308 46.5 236.047 46.92 232.936 47.718 C 233.091 46.334 233.167 44.926 233.167 43.5 C 233.167 21.699 215.467 4 193.667 4 C 185.987 4 178.817 6.196 172.753 9.999 C 165.773 3.78 156.575 0 146.5 0 C 136.034 0 126.513 4.079 119.45 10.742 C 116.987 10.253 114.439 10 111.833 10 C 100.038 10 89.444 15.181 82.21 23.395 C 78.908 22.481 75.426 22 71.833 22 C 50.657 22 33.351 38.7 32.385 59.639 C 13.975 62.995 0 79.128 0 98.5 C 0 108.417 3.663 117.486 9.72 124.415 C 6.393 130.181 4.5 136.871 4.5 144 C 4.5 165.801 22.199 183.5 44 183.5 C 65.801 183.5 83.5 165.801 83.5 144 C 83.5 142.574 83.424 141.166 83.269 139.782 C 86.38 140.58 89.641 141 93 141 C 106.566 141 118.544 134.146 125.666 123.721 L 125.666 123.721 L 125.666 123.721 C 131.714 127.49 138.855 129.667 146.5 129.667 C 154.735 129.667 162.384 127.141 168.698 122.799 C 172.736 125.24 177.243 126.985 182.051 127.86 C 183.017 148.8 200.324 165.5 221.5 165.5 C 225.093 165.5 228.574 165.019 231.877 164.105 C 239.111 172.319 249.705 177.5 261.5 177.5 C 283.301 177.5 301 159.801 301 138 C 301 136.316 300.894 134.656 300.692 133.026 Z " fill-rule="evenodd" fill="rgb(23,23,23)"/><line x1="142.625" y1="213.75" x2="151.282" y2="221.25" vector-effect="non-scaling-stroke" stroke-width="1" stroke="rgb(0,0,0)" stroke-linejoin="miter" stroke-linecap="square" stroke-miterlimit="3"/><line x1="151.4" y1="221.25" x2="160.057" y2="213.75" vector-effect="non-scaling-stroke" stroke-width="1" stroke="rgb(0,0,0)" stroke-linejoin="miter" stroke-linecap="square" stroke-miterlimit="3"/><rect x="132.5" y="263.25" width="38.625" height="2.25" transform="matrix(1,0,0,1,0,0)" fill="rgb(23,23,23)"/><path d=" M 187.893 270.333 L 117.095 270.333 L 94.5 291.917 L 77.5 308.155 L 77.5 343 L 224.833 343 L 224.833 305.619 L 211.012 292.417 L 187.893 270.333 Z " fill-rule="evenodd" fill="rgb(209,209,209)"/><polygon points="132.484,270.065,171.781,269.563,152.756,293.594" fill="rgb(168,73,168)"/></g></svg>